# xmcd
#
# Track frame offsets: 
#        150
#        24697
#        36350
#        59747
#        75657
#        87927
#        126910
#        149092
#        166492
#        185652
#        209720
#        234655
#        249990
#        267082
#        287780
#        299790
#
# Disc length: 4223 seconds
#
# Revision: 15
# Processed by: cddbd v1.5.2PL0 Copyright (c) Steve Scherf et al.
# Submitted via: ExactAudioCopy v1.3
#
DISCID=08107d10
DTITLE=B.B. King - His Definitive Greatest Hits [CD 1)
DYEAR=1999
DGENRE=Blues
TTITLE0=The Thrill Is Gone
TTITLE1=Paying The Cost To Be The Boss
TTITLE2=Don't Answer The Door (Parts One and Two)
TTITLE3=I Like To Live The Love
TTITLE4=How Blue Can You Get
TTITLE5=Why I Sing The Blues
TTITLE6=Chains And Things
TTITLE7=To Know You Is To Love You
TTITLE8=When Love Comes To Town (with U2)
TTITLE9=Playin' With My Friends (with Robert Cray)
TTITLE10=Never Make Your Move Too Soon
TTITLE11=Better Not Look Down
TTITLE12=There Must Be A Better World Somewhere
TTITLE13=Hummingbird
TTITLE14=Everyday I Have The Blues (Live)
TTITLE15=Sweet Little Angel (Live)
EXTD=CD 1999 - CD 1/2 - digitally remastered\nMCA Records MCD 11921 [1
EXTD=11 921-2]\n
EXTT0=
EXTT1=
EXTT2=
EXTT3=
EXTT4=
EXTT5=
EXTT6=
EXTT7=
EXTT8=feat: U2
EXTT9=feat: Robert Cray
EXTT10=
EXTT11=
EXTT12=
EXTT13=
EXTT14=
EXTT15=
PLAYORDER=
